<svg width="284" height="284" xmlns="http://www.w3.org/2000/svg">

 <g>
  <title>background</title>
  <rect fill="none" id="canvas_background" height="286" width="286" y="-1" x="-1"/>
 </g>
 <g>
  <title>Layer 1</title>
  <path stroke="null" fill="#666666" id="svg_2" d="m114.793946,95.162024l-6.76056,18.02737l-43.13163,25.13403q-4.45808,12.88486 -7.29278,23.29367q-8.94749,30.47163 -5.53797,71.01473q3.25267,39.71763 14.92517,39.6443l157.97217,-1.73013q5.07602,-5.07287 7.24128,-13.401q5.33524,-24.46167 1.14959,-63.23917q-2.70465,-23.9143 -16.78407,-57.5791l-45.68559,-22.96073l-8.81943,-18.26367l-47.21359,0.0596"/>
  <g stroke="null" id="svg_3" fill="rgb(137,203,229)">
   <path stroke="null" fill="#FFB27C" id="svg_4" d="m118.891645,111.148474l-2.24717,20.64208l15.05891,43.89701q3.19305,39.50076 3.1205,52.54536q0.1499,14.94997 -2.84534,24.41225q-1.98506,7.08955 -8.5656,19.01905l42.45675,-0.465l0.00201,0.00015q-7.75287,-29.95398 -8.95781,-49.87185q-1.05553,-13.7613 -0.0638,-33.12693q0.42061,-8.15021 1.22121,-17.42459q0.5274,-6.65656 2.85971,-28.32916q0.36771,-3.73285 0.34567,-5.51282q-0.0516,-1.44986 -0.29779,-1.88727q-1.8775,-1.55377 -8.19467,-19.11621l3.12364,-3.32495l-36.99339,-1.45621l-0.02283,-0.00091z"/>
  </g>
  <g id="svg_5" fill="rgb(0,0,0)">
   <path fill="#666666" id="svg_6" d="m135.217915,12.723724q-10.8019,0.091 -19.30409,6.7q-9.50266,7.489 -12.70762,17.97334q-2.44164,8.46018 0.73706,19.74766q4.00612,13.32235 11.56675,23.99084l48.0321,-1.88344l0.04413,-0.11547q4.75523,-20.3363 5.74519,-28.70056q1.17896,-8.90472 -0.57287,-12.74187q-1.32019,-3.5218 -6.56305,-5.41435q-0.29767,-8.62893 -7.02289,-13.27218q-8.57465,-6.13132 -19.94702,-6.28397"/>
  </g>
  <g id="svg_7" fill="rgb(255,205,166)">
   <path fill="#FFE7A2" id="svg_8" d="m148.463975,36.192144q-4.0268,-0.46265 -26.48131,3.45321q-4.80154,0.74527 -6.4547,2.19717q-1.53067,1.25007 -1.95126,4.00196q-0.19565,1.16177 -0.2547,2.81354q0.12537,9.37347 -0.25378,11.1971q-0.374,3.71638 -2.33942,10.29408q-6.37073,-2.34118 -6.5249,4.34897q-0.39505,7.57211 1.85229,12.0437q1.70328,3.73352 7.40886,3.29297l2.97226,7.73184l2.58961,13.79251l0.06493,5.69617l15.41022,13.77746l4.17093,17.4912l7.66048,-18.68416l6.84964,-5.86864l-0.37201,-8.14793l8.60002,-9.30249q-0.3013,-15.94578 0.93255,-17.32593q0.41639,-0.92438 1.10086,-1.20605l4.05128,-0.03595q1.29559,-0.33432 2.082,-1.45893q2.08529,-3.11732 2.83267,-10.55539q0.70532,-8.45578 -2.16486,-10.08566q-5.40997,-1.60931 -7.31521,4.10403q-0.38248,-6.13317 -1.09134,-8.5503q-0.08362,-1.07705 -2.7331,-6.14232q-0.47055,-1.22598 -0.63723,-2.16965q-0.19645,-0.92731 -0.24576,-2.36838q0.16559,-6.16061 -0.02381,-7.02481q-0.19181,-2.23956 -1.12385,-3.89721q-1.827,-3.42148 -8.56854,-3.4115"/>
  </g>
  <g id="svg_9" fill="rgb(255,56,0)">
   <path fill="#E6C36A" id="svg_10" d="m161.619475,94.620944q-7.91644,9.37728 -12.18866,12.49902q-4.91322,3.75126 -9.43114,4.09921q-9.11553,0.72742 -23.40937,-13.04888l25.11088,26.6672l19.85646,-30.12183"/>
  </g>
  <g transform="rotate(-180 140.116943359375,92.53196716308592) " stroke="null" id="svg_11" fill="rgb(255,56,0)">
   <path stroke="null" fill="#97944B" id="svg_12" d="m150.586155,89.788783q-7.47667,0.623246 -11.29238,1.636253q-4.34057,1.11777 -9.64602,3.850125l20.90797,-5.478302"/>
  </g>
  <g id="svg_13" fill="rgb(255,56,0)">
   <path fill="#CFCA6D" id="svg_14" d="m145.924545,80.534224l-6.23252,3.1192l-6.3333,-0.72926l5.5614,2.86426q0.2167,0.24542 0.32199,0.2927q0.18344,0.0999 0.43429,0.0449q0.59015,-0.1115 1.96744,-1.36595q1.22198,-1.09452 4.26343,-4.20792"/>
  </g>
  <g id="svg_15" fill="rgb(0,0,0)">
   <path fill="#444444" id="svg_16" d="m135.650785,60.404324l-25.28416,1.118q1.8298,9.67204 4.59784,12.68462q2.97467,3.57635 8.9201,3.3948q6.53766,-0.48385 9.31447,-4.43402q2.49036,-3.27878 2.45197,-12.75873"/>
  </g>
  <g id="svg_17" fill="rgb(0,0,0)">
   <path fill="#444444" id="svg_18" d="m163.470185,59.147064l-25.27972,1.14126q1.74697,9.26694 4.40426,12.4464q2.9852,3.78896 9.09271,3.61016q6.70099,-0.47006 9.51102,-4.68436q2.30859,-3.39114 2.27207,-12.47925"/>
  </g>
  <g id="svg_23" fill="rgb(210,201,201)">
   <path fill="none" id="svg_24" d="m204.760825,185.746724l-1.26012,85.0403l11.31718,-0.1239l-10.04883,-84.8468l-0.00823,-0.0696zm-125.55124,6.78877l2.5147,79.58533l8.01227,-0.0878l-10.51757,-79.43l-0.0094,-0.06753z"/>
  </g>
  <g id="svg_25" fill="rgb(0,0,0)">
   <path fill="#C48157" id="svg_26" d="m146.714615,131.083624l-4.32587,13.00073l0,0l9.01001,-0.01151l-2.22677,-9.69888l-2.45609,-3.28864l-0.00128,-0.0017zm-19.60988,-1.87647l-0.34033,14.88162l9.28387,0.80695l0,0l-3.0989,-10.93366l-5.83149,-4.7442l-0.01315,-0.01071z"/>
  </g>
  <g id="svg_27" fill="rgb(0,0,0)">
   <path id="svg_28" d="m140.993505,60.910764l-9.88987,0.52329l0.07029,1.30467l9.82968,-0.5215q0.05804,-0.00253 0.10098,-0.01083q0.52887,-0.14044 0.53223,-0.69025q-0.08481,-0.54355 -0.62534,-0.60495"/>
  </g>
  <g id="svg_29" fill="rgb(0,0,0)">
   <path fill="#B8874D" id="svg_30" d="m138.912385,147.279424l-0.01187,0q-0.61579,0.0729 -0.64807,0.67263l4.83307,123.49683l1.30658,-0.01426l-4.83303,-123.50564q-0.07449,-0.60589 -0.64668,-0.64956z"/>
  </g>
 </g>
</svg>